<?xml version="1.0" encoding="utf-8"?>
<!-- Generator: Adobe Illustrator 27.0.0, SVG Export Plug-In . SVG Version: 6.00 Build 0)  -->
<svg version="1.1" xmlns="http://www.w3.org/2000/svg" xmlns:xlink="http://www.w3.org/1999/xlink" x="0px" y="0px"
	 viewBox="0 0 3069.7 3083.3" style="enable-background:new 0 0 3069.7 3083.3;" xml:space="preserve">
<style type="text/css">
	.st0{fill:#F4F7FA;}
	.st1{clip-path:url(#SVGID_00000127757065561503339200000016153030716919665795_);}
	.st2{fill:#FCFDFE;}
	.st3{clip-path:url(#SVGID_00000168827664226908702160000010030113866880038049_);}
	.st4{fill:url(#SVGID_00000134240785201146688380000011837638252529237396_);}
	.st5{fill:url(#SVGID_00000132767483608773010360000004319063172976188804_);}
	.st6{fill:url(#SVGID_00000093135380961916339800000000944550019267800723_);}
	.st7{fill:#D8DEE8;}
	.st8{fill:#FFFFFF;}
	.st9{opacity:0.48;fill:#FFFFFF;}
	.st10{fill:url(#SVGID_00000052811197796305842790000011717403441147084464_);}
	.st11{opacity:0.3;fill:url(#SVGID_00000119798224574277014090000002852262807820213400_);}
	.st12{fill:url(#SVGID_00000126290572237889760900000002556947003968096940_);}
	.st13{opacity:0.74;fill:#FFFFFF;}
	.st14{fill:url(#SVGID_00000089559129475743788960000003515490737353145472_);}
	.st15{opacity:0.5;}
	.st16{fill:url(#SVGID_00000072263856313709162150000012021945670740329618_);}
	.st17{fill:url(#SVGID_00000145032928585428580590000001422559422352729254_);}
	.st18{fill:url(#SVGID_00000029730882400391941330000003609552370213743511_);}
	.st19{fill:url(#SVGID_00000010299281172452298870000008933962705438798226_);}
	.st20{fill:url(#SVGID_00000018195727737777100290000001488080334444070328_);}
	.st21{fill:url(#SVGID_00000121264285584573632250000001685642623033852845_);}
	.st22{fill:url(#SVGID_00000127724691504331420250000016362925871750780073_);}
	.st23{opacity:0.3;fill:url(#SVGID_00000178904540708893128290000015737019557682027182_);}
	.st24{fill:url(#SVGID_00000177448253940443846420000012796084618591364763_);}
	.st25{opacity:0.4;fill:url(#SVGID_00000049917733211689610610000006481887692330102160_);}
	.st26{fill:url(#SVGID_00000136395842285503321800000014795934989380154019_);}
	.st27{fill:url(#SVGID_00000100377946751837028340000016031146244144711341_);}
	.st28{fill:url(#SVGID_00000152225296258370600320000006416053199470679475_);}
	.st29{fill:url(#SVGID_00000069368052864874366630000013010209928867187887_);}
	.st30{fill:url(#SVGID_00000064312416218232390060000018056737224031540407_);}
	.st31{fill:url(#SVGID_00000170254086600352790920000017200655273802041510_);}
	.st32{opacity:0.3;fill:url(#SVGID_00000082332139398421622230000015198591600901459611_);}
	.st33{fill:url(#SVGID_00000147910749481352588960000004744507439408938883_);}
	.st34{fill:url(#SVGID_00000138562099459459812120000002555854145366110374_);}
	.st35{fill:url(#SVGID_00000116212240421084491790000005954374462196924065_);}
	.st36{opacity:0.3;fill:url(#SVGID_00000018203044726225836570000009076521295156216760_);}
	.st37{fill:url(#SVGID_00000070823282626499542780000016286705873040257725_);}
	.st38{fill:url(#SVGID_00000057855217122240372940000002228312467160928445_);}
	.st39{fill:url(#SVGID_00000137830784632687445550000013639276061959360656_);}
	.st40{fill:url(#SVGID_00000039111756392169792170000004372283532975247238_);}
	.st41{fill:url(#SVGID_00000178205887165325017580000009361197263866045883_);}
	.st42{fill:url(#SVGID_00000060022696499171358950000002888573161100755352_);}
	.st43{fill:url(#SVGID_00000005238685863409184010000014689538326862420882_);}
	.st44{fill:url(#SVGID_00000130642261244815421710000016247814571407750306_);}
	.st45{fill:url(#SVGID_00000044147632930698170950000005343158083811123843_);}
	.st46{fill:url(#SVGID_00000093141369609597591280000017811189166534723517_);}
	.st47{opacity:0.3;fill:url(#SVGID_00000079446131094748171250000018082263564442963374_);}
</style>
<g id="Background">
</g>
<g id="Illustration">
	<g>
		<path class="st0" d="M2891.3,1283.7c-55.4-362.4-99.8-612.9-299.8-750.1C2254.2,302,1877.6,677.9,1399.8,425.7
			c-235.2-124.2-244-268.1-443.3-287.2c-352.5-33.8-641.1,386.8-666.1,422.9c-152,219.2-202.8,486.4-141.1,741.2
			c40,165.5,67.1,336.8,59.6,506.8c-12.9,295.9-5.5,572.2,281.7,748.7c256.4,157.6,579.2,296.6,887.1,320.9
			c209.2,16.5,443.9-10.2,645.6-64.7C3051.1,2536.6,2967.4,1782,2891.3,1283.7z"/>
		<g>
			<g>
				<g>
					<g>
						<defs>
							<path id="SVGID_1_" d="M1566.2,2345c23,1.3,74.3-16.1,85.8-26.2c76.4-66.9,227.7-182.8,241.3-289.3
								c2.3-18.2-74.9-50-83.1-68.6c-44.3-32.2-61.7-40.7-88.8-92c-80-151.6,205.6-354.4-56.1-493.8
								c-191.7-102.1-376.9-64.2-295.6-376.3c81.3-312.1-61.1-935.4-436.4-777.6c-215.4,90.6-71.4,396-207.3,575.8
								c-129.1,170.9-78.4,341,100.6,491.8c179,150.7,55.7,217.6-36.2,385.7c-110.3,202,213.4,302.3,366.9,335.9
								C1280.7,2037.4,1577,2189.6,1566.2,2345z"/>
						</defs>
						
							<linearGradient id="SVGID_00000078725144794265318870000002768708292074723213_" gradientUnits="userSpaceOnUse" x1="1073.6366" y1="253.893" x2="1723.8729" y2="4410.772">
							<stop  offset="3.597120e-03" style="stop-color:#E38DDD"/>
							<stop  offset="1" style="stop-color:#9571F6"/>
						</linearGradient>
						
							<use xlink:href="#SVGID_1_"  style="overflow:visible;fill:url(#SVGID_00000078725144794265318870000002768708292074723213_);"/>
						<clipPath id="SVGID_00000141457572363786860780000011901833908627950218_">
							<use xlink:href="#SVGID_1_"  style="overflow:visible;"/>
						</clipPath>
						<g style="clip-path:url(#SVGID_00000141457572363786860780000011901833908627950218_);">
							<g>
								<path class="st2" d="M1768,2182.8l2.9-3.9c-606.2-450.6-879.3-1212.1-730.7-2036.9l-4.8-0.9
									C965,532,990.7,923.5,1109.8,1273.4C1235,1641.3,1462.7,1955.7,1768,2182.8z"/>
								<path class="st2" d="M734.7,1753.2c204.8-27,527.8,31.9,720,131.4l2.3-4.4c-193-99.9-517.3-159-722.9-131.9L734.7,1753.2z"
									/>
								<path class="st2" d="M1650.1,2092.9l3.9-3c-68.1-89.5-88.4-210-60.3-358.2c20.6-108.7,66.4-229.4,135.9-358.8l-4.3-2.3
									c-69.8,129.9-115.6,251.1-136.4,360.2C1560.4,1880.5,1581,2002.3,1650.1,2092.9z"/>
								<path class="st2" d="M1094.9,1223.1l4-2.8C979.1,1045,770.7,965,616.9,928.7l-1.1,4.8C768.7,969.6,976,1049.1,1094.9,1223.1
									z"/>
								<path class="st2" d="M1002.4,746l4.9,0.6c27.1-237.7,200.8-418.9,302-505.8l-3.2-3.7C1204.3,324.3,1029.7,506.6,1002.4,746z
									"/>
							</g>
						</g>
					</g>
				</g>
			</g>
			<g>
				<g>
					<g>
						<defs>
							<path id="SVGID_00000064330144595840779210000017212174836467339424_" d="M1556,2477.3c21.9-7.3,63.1-42.4,70-56
								c46.3-90.4,144-254.1,117.2-358c-4.6-17.8-88.1-18.8-102.6-33c-53.1-13.6-72.4-15-116.6-52.7
								c-130.4-111.3,59.9-405.3-234.7-438c-215.8-24-373.9,79.7-413.8-240.4c-39.8-320-402.6-846.5-693-561.1
								c-166.7,163.8,80,394.4,20.3,611.6c-56.8,206.5,53.3,345.8,275.3,419.7c222,73.9,132.2,181.6,109,371.8
								c-27.8,228.5,310.1,202,465.1,176.4C1177,2297,1508.6,2328.9,1556,2477.3z"/>
						</defs>
						<use xlink:href="#SVGID_00000064330144595840779210000017212174836467339424_"  style="overflow:visible;fill:#FE8794;"/>
						<clipPath id="SVGID_00000169536018256887976960000000442054727050269074_">
							<use xlink:href="#SVGID_00000064330144595840779210000017212174836467339424_"  style="overflow:visible;"/>
						</clipPath>
						<g style="clip-path:url(#SVGID_00000169536018256887976960000000442054727050269074_);">
							<g>
								<path class="st2" d="M1683.6,2251.9l1.3-4.7C955,2052.5,419.7,1446,252.9,624.7l-4.8,1c79.1,389.2,247.7,743.6,487.7,1024.6
									C988.1,1945.8,1315.9,2153.8,1683.6,2251.9z"/>
								<path class="st2" d="M564.7,2234.8c180.3-100.8,502.2-165.5,717.6-144.2l0.5-4.9c-216.2-21.4-539.4,43.5-720.5,144.8
									L564.7,2234.8z"/>
								<path class="st2" d="M1540.7,2212l2.5-4.2c-96.4-58-159.8-162.4-188.4-310.5c-21-108.6-23.1-237.7-6.4-383.6l-4.9-0.6
									c-16.8,146.5-14.6,276,6.5,385.1C1378.9,2047.7,1443.1,2153.3,1540.7,2212z"/>
								<path class="st2" d="M703.3,1609.1l2.7-4.1c-176.1-118.6-399.4-115.9-555.7-92.8l0.7,4.9
									C306.5,1494.1,528.5,1491.4,703.3,1609.1z"/>
								<path class="st2" d="M440.9,1199.9l4.7-1.3C383,967.8,477.4,735.2,539.2,617l-4.3-2.3C472.7,733.5,377.8,967.5,440.9,1199.9
									z"/>
							</g>
						</g>
					</g>
				</g>
			</g>
		</g>
		<g>
			
				<linearGradient id="SVGID_00000046308529792714957330000010709911623036826780_" gradientUnits="userSpaceOnUse" x1="1379.2139" y1="2814.4702" x2="1187.2236" y2="2895.1062">
				<stop  offset="0" style="stop-color:#40447E"/>
				<stop  offset="0.9964" style="stop-color:#3C3B6B"/>
			</linearGradient>
			<path style="fill:url(#SVGID_00000046308529792714957330000010709911623036826780_);" d="M2957.7,2709.2l-2732.8-24v71.1
				c0,19.3,11.9,35.7,28.1,38.6l772.8,139.9c9.2,1.7,18.5,2.1,27.7,1.3L2928,2776.6c16.7-1.4,29.7-17.9,29.7-37.7V2709.2z"/>
			<g>
				
					<linearGradient id="SVGID_00000000185094323239114580000004789450813394378386_" gradientUnits="userSpaceOnUse" x1="1066.8341" y1="1960.9597" x2="867.7719" y2="2044.5658">
					<stop  offset="0" style="stop-color:#40447E"/>
					<stop  offset="0.9964" style="stop-color:#3C3B6B"/>
				</linearGradient>
				<path style="fill:url(#SVGID_00000000185094323239114580000004789450813394378386_);" d="M1966,2594L253.2,2724
					c-30.6,2.3-55.6-22.4-55.6-55.2V1353.6c0-32.8,24.9-59.4,55.6-59.4H1966c25.3,0,45.7,24.1,45.7,53.7v1188.9
					C2011.7,2566.5,1991.3,2592.1,1966,2594z"/>
				
					<linearGradient id="SVGID_00000050645765643304501200000000307635340358475651_" gradientUnits="userSpaceOnUse" x1="224.9467" y1="2009.1549" x2="2039" y2="2009.1549">
					<stop  offset="0" style="stop-color:#40447E"/>
					<stop  offset="0.9964" style="stop-color:#3C3B6B"/>
				</linearGradient>
				<path style="fill:url(#SVGID_00000050645765643304501200000000307635340358475651_);" d="M1993.3,2594L280.5,2724
					c-30.7,2.3-55.6-22.4-55.6-55.2V1353.6c0-32.8,24.9-59.4,55.6-59.4h1712.8c25.3,0,45.7,24.1,45.7,53.7v1188.9
					C2039,2566.5,2018.6,2592.1,1993.3,2594z"/>
				<path class="st7" d="M1940,2510.2L344.7,2623.1c-24.9,1.8-45.2-18.5-45.2-45.3V1426.3c0-26.8,20.3-48.6,45.2-48.7l1595.3-7.1
					c20.8-0.1,37.7,19.6,37.7,44v1048.8C1977.7,2487.7,1960.8,2508.7,1940,2510.2z"/>
				<path class="st8" d="M1197.4,1330.1c0,12.2-8.8,22.2-19.7,22.2c-10.9,0-19.7-9.9-19.7-22.1c0-12.2,8.8-22.2,19.7-22.2
					C1188.6,1308,1197.4,1317.9,1197.4,1330.1z"/>
				<path class="st9" d="M1580.7,2233.3c-132-76.3-235.9,20.4-336.1-75c-60.7-57.8-30.9-101-105.7-187.4
					c-82.8-95.7-136.7-63.6-219.9-149.7c-105.2-108.9-52.6-193.7-143.2-271.9c-109.9-94.9-228.5-7.1-333.1-98.1
					c-45.1-39.3-69.9-96.3-82.8-157H257.5c-17.9,0-32.5,15.6-32.5,34.9v1363.3c0,19.3,14.6,33.8,32.5,32.4l1745.6-133.1
					c8.6-0.7,16.2-6,21-13.8c-127.8-5-206.3-51-256.5-98.6C1669.5,2386.2,1686.5,2294.5,1580.7,2233.3z"/>
			</g>
			
				<linearGradient id="SVGID_00000135686744665353118890000002951333628453781383_" gradientUnits="userSpaceOnUse" x1="224.9467" y1="2729.7043" x2="2957.7434" y2="2729.7043">
				<stop  offset="0" style="stop-color:#40447E"/>
				<stop  offset="0.9964" style="stop-color:#3C3B6B"/>
			</linearGradient>
			<path style="fill:url(#SVGID_00000135686744665353118890000002951333628453781383_);" d="M2061.6,2588.1L224.9,2725l800.8,145
				c9.2,1.7,18.5,2.1,27.7,1.3l1904.3-162.1L2090.8,2589C2081.1,2587.7,2071.3,2587.4,2061.6,2588.1z"/>
			
				<linearGradient id="SVGID_00000066506925435375001280000006548219428703625884_" gradientUnits="userSpaceOnUse" x1="492.9433" y1="2707.1074" x2="2495.2463" y2="2707.1074">
				<stop  offset="0" style="stop-color:#40447E"/>
				<stop  offset="0.9964" style="stop-color:#3C3B6B"/>
			</linearGradient>
			<polygon style="opacity:0.3;fill:url(#SVGID_00000066506925435375001280000006548219428703625884_);" points="492.9,2728.4 
				2022,2612.8 2495.2,2677.8 979.3,2801.4 			"/>
		</g>
		<g>
			<g>
				<g>
					
						<linearGradient id="SVGID_00000129163292238667470850000006464549918609865381_" gradientUnits="userSpaceOnUse" x1="1883.1367" y1="444.2188" x2="262.6823" y2="3685.1206">
						<stop  offset="0" style="stop-color:#AA80F9"/>
						<stop  offset="0.9964" style="stop-color:#6165D7"/>
					</linearGradient>
					<path style="fill:url(#SVGID_00000129163292238667470850000006464549918609865381_);" d="M2079.1,824.2L583.9,775.1
						c-50.1-1.6-91,37.9-91,88.4v1457.3c0,50.4,40.8,89.6,91,87.5l1495.2-63.8c43.2-1.8,78.2-41.1,78.2-87.7V911.1
						C2157.3,864.5,2122.4,825.6,2079.1,824.2z"/>
					<path class="st13" d="M583.9,2379.1c-34.1,1.4-61.8-25.2-61.8-59.5V864.3c0-34.3,27.7-61.2,61.8-60.1l1495.2,47.1
						c29.5,0.9,53.3,27.4,53.3,59.2v1347.2c0,31.7-23.8,58.5-53.3,59.7L583.9,2379.1z"/>
					
						<linearGradient id="SVGID_00000111181401456432358270000017763006076530763664_" gradientUnits="userSpaceOnUse" x1="1182.2863" y1="343.0055" x2="1463.8458" y2="1469.2474">
						<stop  offset="0" style="stop-color:#AA80F9"/>
						<stop  offset="0.9964" style="stop-color:#6165D7"/>
					</linearGradient>
					<path style="fill:url(#SVGID_00000111181401456432358270000017763006076530763664_);" d="M2079.1,824.2L583.9,775.1
						c-50.1-1.6-91,37.9-91,88.4v65.5l1664.4,42.7v-60.5C2157.3,864.5,2122.4,825.6,2079.1,824.2z"/>
					<path class="st8" d="M654.7,859.3c0,16.4-13.2,29.3-29.5,28.9c-16.3-0.5-29.6-14.1-29.6-30.6s13.2-29.3,29.6-28.9
						C641.5,829.2,654.7,842.9,654.7,859.3z"/>
					<path class="st8" d="M757.6,862.3c0,16.3-13.1,29.2-29.2,28.7c-16.2-0.4-29.3-14.1-29.3-30.4c0-16.4,13.1-29.2,29.3-28.7
						C744.5,832.3,757.6,845.9,757.6,862.3z"/>
					<path class="st8" d="M859.6,865.2c0,16.2-12.9,29-28.9,28.6c-16-0.4-29-14-29-30.3c0-16.3,13-29.1,29-28.6
						C846.6,835.4,859.6,849,859.6,865.2z"/>
					<g class="st15">
						<path class="st8" d="M1497.9,1384.4c-174.6-254.1-476.9-173.3-668.1-454c-34.5-50.6-57.9-102.2-73.9-149.7l-171.9-5.7
							c-50.1-1.6-91,37.9-91,88.4v1457.3c0,50.4,40.8,89.6,91,87.5l1440.5-61.5c-33-47.6-320.4-223.9-394.7-494.5
							C1561.8,1604.6,1603.3,1537.8,1497.9,1384.4z"/>
					</g>
				</g>
				<g>
					<polygon class="st8" points="2076,1361 604.5,1359.2 604.5,1311.1 2076,1317.1 					"/>
					<polygon class="st8" points="2076,1258.6 604.5,1246.1 604.5,1122.8 2076,1146.1 					"/>
					<g>
						<g>
							<path class="st8" d="M832.2,1621l-195.2,1.2v-186.5l195.2,0.2V1621z M659.8,1596.6l143.1-0.7v-134.7l-143.1-0.1V1596.6z"/>
						</g>
						<polygon class="st8" points="2043.8,1485.7 913.5,1486.3 913.5,1436 2043.8,1437.2 						"/>
						<polygon class="st8" points="2043.8,1563.8 913.5,1567.4 913.5,1519.9 2043.8,1518 						"/>
					</g>
					<g>
						<g>
							<path class="st8" d="M832.2,1895.8L637,1899v-186.5l195.2-1.8V1895.8z M659.8,1873.2l143.1-2.2v-134.7l-143.1,1.5V1873.2z"/>
						</g>
						<polygon class="st8" points="2043.8,1749.6 913.5,1760.3 913.5,1710 2043.8,1701.1 						"/>
						<polygon class="st8" points="2043.8,1827.7 913.5,1841.4 913.5,1793.8 2043.8,1781.9 						"/>
					</g>
					<g>
						<g>
							<path class="st8" d="M832.2,2170.6l-195.2,5.3v-186.5l195.2-3.9V2170.6z M659.8,2152.7l143.1-3.8v-137.6l-143.1,3V2152.7z"/>
						</g>
						<polygon class="st8" points="2043.8,2013.5 913.5,2034.3 913.5,1983.9 2043.8,1965 						"/>
						<polygon class="st8" points="2043.8,2091.6 913.5,2115.3 913.5,2067.8 2043.8,2045.8 						"/>
					</g>
				</g>
			</g>
			<g>
				
					<linearGradient id="SVGID_00000017506994492832329850000013431400317690201276_" gradientUnits="userSpaceOnUse" x1="729.4749" y1="1815.616" x2="729.4749" y2="1466.1249">
					<stop  offset="0" style="stop-color:#AA80F9"/>
					<stop  offset="0.9964" style="stop-color:#6165D7"/>
				</linearGradient>
				<path style="fill:url(#SVGID_00000017506994492832329850000013431400317690201276_);" d="M704.8,1612.4c-5.6,0-10.9-2-14.9-5.8
					l-58.6-55.5c-8.3-7.8-8.3-20.5,0-28.4c8.3-7.9,21.6-7.9,29.9-0.1l40.7,38.6l93.9-129.3c6.6-9,19.6-11.3,29-5
					c9.4,6.3,11.8,18.7,5.2,27.7l-108,148.9c-3.5,4.9-9.2,8.1-15.4,8.6C706.1,1612.3,705.5,1612.4,704.8,1612.4z"/>
			</g>
			<g>
				
					<linearGradient id="SVGID_00000148662158342857917980000002721427995728523649_" gradientUnits="userSpaceOnUse" x1="734.5889" y1="2093.3352" x2="734.5889" y2="1743.844">
					<stop  offset="0" style="stop-color:#AA80F9"/>
					<stop  offset="0.9964" style="stop-color:#6165D7"/>
				</linearGradient>
				<path style="fill:url(#SVGID_00000148662158342857917980000002721427995728523649_);" d="M710,1890.1c-5.6,0-10.9-2-14.9-5.8
					l-58.6-55.5c-8.3-7.8-8.3-20.5,0-28.4c8.3-7.9,21.6-7.9,29.9-0.1l40.7,38.6l93.9-129.3c6.6-9,19.6-11.3,29-5
					c9.4,6.3,11.8,18.7,5.2,27.7l-108,148.9c-3.5,4.9-9.2,8.1-15.4,8.6C711.2,1890,710.6,1890.1,710,1890.1z"/>
			</g>
		</g>
		<g>
			<g>
				
					<linearGradient id="SVGID_00000139287090140022514630000001609838436783128976_" gradientUnits="userSpaceOnUse" x1="1946.7654" y1="873.8568" x2="1549.3323" y2="1001.405">
					<stop  offset="0" style="stop-color:#FCB148"/>
					<stop  offset="5.207239e-02" style="stop-color:#FDBA46"/>
					<stop  offset="0.1424" style="stop-color:#FFC244"/>
					<stop  offset="0.3183" style="stop-color:#FFC444"/>
					<stop  offset="0.4849" style="stop-color:#FDB946"/>
					<stop  offset="0.7754" style="stop-color:#F99C4D"/>
					<stop  offset="0.8658" style="stop-color:#F8924F"/>
					<stop  offset="1" style="stop-color:#F8924F"/>
				</linearGradient>
				<path style="fill:url(#SVGID_00000139287090140022514630000001609838436783128976_);" d="M2404.3,859.4
					c0,184.4-144.2,329.4-328.4,323.8c-191.8-5.9-353-171.5-353-369.7s161.3-342.1,353-322.1
					C2260.1,510.6,2404.3,675.1,2404.3,859.4z"/>
				
					<linearGradient id="SVGID_00000105407673785284491470000009646076388543268030_" gradientUnits="userSpaceOnUse" x1="2268.2659" y1="478.2521" x2="1913.4619" y2="1261.0155">
					<stop  offset="0" style="stop-color:#FFDB44"/>
					<stop  offset="1" style="stop-color:#FEEF06"/>
				</linearGradient>
				<path style="fill:url(#SVGID_00000105407673785284491470000009646076388543268030_);" d="M2454.1,843.5
					c0,184.4-144.2,329.4-328.4,323.8c-191.8-5.9-353-171.5-353-369.7c0-198.2,161.3-342.1,353-322.1
					C2309.9,494.7,2454.1,659.2,2454.1,843.5z"/>
				
					<linearGradient id="SVGID_00000087414261066363969130000012794713593268480138_" gradientUnits="userSpaceOnUse" x1="2202.9995" y1="1304.7639" x2="2134.5393" y2="930.7689">
					<stop  offset="0" style="stop-color:#FCB148"/>
					<stop  offset="5.207239e-02" style="stop-color:#FDBA46"/>
					<stop  offset="0.1424" style="stop-color:#FFC244"/>
					<stop  offset="0.3183" style="stop-color:#FFC444"/>
					<stop  offset="0.4849" style="stop-color:#FDB946"/>
					<stop  offset="0.7754" style="stop-color:#F99C4D"/>
					<stop  offset="0.8658" style="stop-color:#F8924F"/>
					<stop  offset="1" style="stop-color:#F8924F"/>
				</linearGradient>
				<path style="fill:url(#SVGID_00000087414261066363969130000012794713593268480138_);" d="M2439.6,842.6
					c0,176.3-137.9,314.7-314,309c-182.9-5.9-336.4-164-336.4-352.8c0-188.8,153.5-326.2,336.4-307.5
					C2301.7,509.3,2439.6,666.3,2439.6,842.6z"/>
				
					<linearGradient id="SVGID_00000119091098010507503840000001418926238211574155_" gradientUnits="userSpaceOnUse" x1="2057.8506" y1="699.4117" x2="2339.9839" y2="1298.3267">
					<stop  offset="0" style="stop-color:#FCB148"/>
					<stop  offset="5.207239e-02" style="stop-color:#FDBA46"/>
					<stop  offset="0.1424" style="stop-color:#FFC244"/>
					<stop  offset="0.3183" style="stop-color:#FFC444"/>
					<stop  offset="0.4849" style="stop-color:#FDB946"/>
					<stop  offset="0.7754" style="stop-color:#F99C4D"/>
					<stop  offset="0.8658" style="stop-color:#F8924F"/>
					<stop  offset="1" style="stop-color:#F8924F"/>
				</linearGradient>
				<path style="fill:url(#SVGID_00000119091098010507503840000001418926238211574155_);" d="M2429.3,841.9
					c0,170.4-133.5,304.1-303.6,298.4c-176.5-5.9-324.5-158.6-324.5-340.8s148-314.9,324.5-297
					C2295.8,519.7,2429.3,671.4,2429.3,841.9z"/>
				<g>
					
						<linearGradient id="SVGID_00000163792382706042210850000015524335084028515220_" gradientUnits="userSpaceOnUse" x1="2046.6105" y1="570.5328" x2="2188.4768" y2="1102.2229">
						<stop  offset="0" style="stop-color:#FFDB44"/>
						<stop  offset="1" style="stop-color:#FEEF06"/>
					</linearGradient>
					<path style="fill:url(#SVGID_00000163792382706042210850000015524335084028515220_);" d="M2123.9,560.5L2123.9,560.5
						c9.1,0.9,16.4,9,16.4,18.2v31.4c18.1,2,36.2,5.2,54.4,9.4c13.4,3.1,26.7,6.9,39.9,11.2c7.9,2.6,13.3,10.6,12.5,18.8l-3.9,39.4
						c-1,10.4-11.3,16.6-21.1,12.2c-8.7-3.9-17.6-7.2-26.8-10c-16-4.8-32.8-8-50.5-9.4l-4.6-0.4v89.9c47.2,13.2,81.9,31,104.3,53.3
						c22.3,22.3,33.4,50,33.4,83.3c0,36-12.3,64.8-37,86.6c-24.8,21.9-59.6,34.2-104.6,36.8v34.6c0,9.2-7.3,16.4-16.4,16l-0.3,0
						c-9.1-0.4-16.5-8.1-16.5-17.4v-34.2l-7.3-0.3c-21.1-1-41.3-3.1-60.6-6.5c-14.3-2.5-28.2-5.7-41.9-9.6
						c-8.2-2.4-13.9-10.2-13.1-18.6l4.5-50.6c1-10.9,12-17.3,22.4-13.2c12.1,4.8,24.4,8.8,36.8,12.1c19.4,5.1,39,8.4,58.9,9.8
						l0.3-100c-45.3-11.2-79.3-27.8-101.6-49.8c-22.4-22.1-33.6-50.4-33.6-84.8c0-35.6,12.2-63.1,36.5-82.4
						c24.2-19.2,58.5-28.7,102.8-28.7v-32.1C2107.5,566.4,2114.8,559.6,2123.9,560.5z M2107.5,680.5c-14,1-24.9,4.9-32.8,11.5
						c-7.8,6.7-11.8,15.7-11.8,27c0,10.7,3.6,19.6,10.9,26.8c7.2,7.2,18.5,12.9,33.6,17.2V680.5z M2136.5,861.5v91.7
						c15.2,0,26.9-3.6,35.1-10.9c8.1-7.3,12.2-17.6,12.2-30.9c0-12.1-3.8-22.2-11.3-30.2C2164.9,873.2,2152.9,866.6,2136.5,861.5z"
						/>
				</g>
				
					<linearGradient id="SVGID_00000044156597680411268840000006952241332011086464_" gradientUnits="userSpaceOnUse" x1="1974.848" y1="738.1706" x2="2256.4124" y2="1335.8777">
					<stop  offset="0" style="stop-color:#FCB148"/>
					<stop  offset="5.207239e-02" style="stop-color:#FDBA46"/>
					<stop  offset="0.1424" style="stop-color:#FFC244"/>
					<stop  offset="0.3183" style="stop-color:#FFC444"/>
					<stop  offset="0.4849" style="stop-color:#FDB946"/>
					<stop  offset="0.7754" style="stop-color:#F99C4D"/>
					<stop  offset="0.8658" style="stop-color:#F8924F"/>
					<stop  offset="1" style="stop-color:#F8924F"/>
				</linearGradient>
				<path style="opacity:0.3;fill:url(#SVGID_00000044156597680411268840000006952241332011086464_);" d="M2070.7,883.6
					c10.3-101.3,103.4-144.2,91.2-237.4c-7.5-57.4-51-105.8-99.6-143.6C1915,518,1801.1,640,1801.1,799.5
					c0,182.2,148,334.8,324.5,340.8c17.1,0.6,33.9-0.3,50.2-2.4C2105.7,1068.1,2061.9,970.6,2070.7,883.6z"/>
			</g>
			<g>
				
					<linearGradient id="SVGID_00000065763866803880074570000007840015643552412342_" gradientUnits="userSpaceOnUse" x1="1700.7247" y1="931.189" x2="2170.3235" y2="287.6023">
					<stop  offset="0" style="stop-color:#311944"/>
					<stop  offset="1" style="stop-color:#893976"/>
				</linearGradient>
				<path style="fill:url(#SVGID_00000065763866803880074570000007840015643552412342_);" d="M2388.5,631.4v1.4
					c-12.6-17.2-35.2-41.1-48.7-54.9c-0.3-0.6-0.7-1.2-0.9-1.8c-7.5-18.1-17.7-37.7-31-57.2c-13.2-19.6-29.9-38.9-49.5-56.6
					c-2.3-2.3-5-4.3-7.5-6.5c-1.3-1.1-2.6-2.2-3.9-3.2l-1.9-1.6c-0.7-0.5-1.4-1-2-1.5c-2.7-2-5.4-4.1-8.1-6.2l-2-1.5l-2.1-1.4
					c-1.4-1-2.8-1.9-4.2-2.9c-5.5-4-11.5-7.5-17.3-11.2c-3-1.8-6.1-3.4-9.1-5.1c-1.5-0.8-3-1.7-4.6-2.5c-1.6-0.8-3.1-1.6-4.7-2.3
					c-25-12.6-52.2-21.7-80.1-26.8c-3.5-0.6-7-1.2-10.5-1.7c-3.5-0.5-7.1-0.8-10.6-1.2l-5.3-0.6l-5.3-0.3l-5.3-0.3
					c-1.8-0.1-3.5-0.3-5.3-0.2c-3.5,0-7.1-0.1-10.6-0.1c-0.9,0-1.8-0.1-2.6,0l-2.4,0.1l-4.7,0.3l-4.7,0.2c-0.4,0-0.7,0-1.2,0.1
					l-4.8,0.4l-6.4,0.4l-4.8,0.4l-0.8,0.1l-0.3,0c0,0-1.7,0,1.1,0.1l-10.4,1.5c-1.7,0.3-3.4,0.4-5.1,0.8l-5.1,1l-5.1,1l-2.5,0.5
					c-0.8,0.2-1.7,0.4-2.5,0.6c-3.3,0.8-6.7,1.7-10,2.5c-1.7,0.4-3.3,0.9-4.9,1.4l-4.9,1.5l-4.9,1.5l-4.7,1.7
					c-3.2,1.2-6.3,2.2-9.4,3.5c-3.1,1.3-6.1,2.6-9.2,3.9c-24.2,10.8-45.9,24.7-64.5,40.5l-3.5,2.9l-3.3,3.1c-2.2,2.1-4.5,4-6.5,6.1
					c-0.1,0.1-0.2,0.2-0.3,0.3c-4.1,4.2-8.2,8.2-11.8,12.5c-1,1.1-1.9,2.1-2.9,3.2l-1.4,1.6l-1.3,1.7c-1.8,2.2-3.5,4.4-5.3,6.6
					c-0.4,0.5-0.9,1.1-1.3,1.6l-1.2,1.7c-0.8,1.1-1.6,2.3-2.4,3.4c-1.6,2.3-3.3,4.4-4.7,6.7c-12,18-21.2,36-27.4,53.1
					c-6.3,17.1-10,33.2-12.1,47.4c-0.2,1.8-0.5,3.5-0.7,5.3c-0.2,1.7-0.5,3.4-0.6,5.1c-0.3,3.3-0.5,6.5-0.8,9.6
					c-0.2,3.1-0.2,6.1-0.3,8.9c-0.1,1.4-0.1,2.8-0.2,4.1c0.1,1.3,0.1,2.7,0.1,3.9c0,2.5,0.1,4.9,0.1,7.2c0,0.6,0.1,1,0.1,1.4
					c0.1,0.4,0.1,0.8,0.2,1.2c0.1,0.8,0.2,0.7,0.3,1.4c0.1,0.6,0.1,0.9,0.2,0.9h118.4l-72,79.8l-167.3,183l-239.3-262.7h125.8
					c0.2,0,0.4-2.2,0.6-3.8c0.5-3.7,1-7.2,1.6-11.5c0.3-2.2,0.6-4.2,1-6.5c0.2-1.1,0.3-2.2,0.5-3.4c0.2-1.2,0.3-2.4,0.6-3.5
					c0.9-4.4,1.8-8.9,2.8-13.8c0.5-2.4,1-4.9,1.6-7.5c0.6-2.6,1.3-5.1,1.9-7.8c1.4-5.3,2.7-10.9,4.4-16.6c1.8-5.7,3.6-11.6,5.5-17.8
					c0.9-3.1,2.1-6.1,3.2-9.3c1.1-3.1,2.3-6.3,3.5-9.5c9.8-25.6,23.1-53.6,40.9-81.6c17.8-28.1,40.4-56.1,67.2-82
					c3.3-3.3,6.9-6.4,10.3-9.6c1.8-1.6,3.5-3.1,5.3-4.7l2.7-2.4l2.7-2.3c3.7-3,7.4-6,11.1-9.1l2.8-2.3l2.9-2.2
					c2-1.5,3.9-2.9,5.9-4.3c7.7-5.9,15.9-11.2,24.1-16.7c4.1-2.7,8.4-5.1,12.7-7.7c2.1-1.3,4.2-2.5,6.4-3.8c2.2-1.2,4.4-2.4,6.6-3.6
					c35-19.2,73.7-33.7,113.8-42.4c5-1,10.1-2,15.1-3c5-0.9,10.2-1.6,15.2-2.4l7.6-1.1l7.7-0.8l7.7-0.7c2.6-0.2,5.1-0.5,7.7-0.6
					c5.1-0.2,10.2-0.8,15.4-1.1c1.3-0.1,2.6-0.5,3.8-0.5h3.9l7.6,0.4l7.6,0.3c2.6,0,5.1,0.3,7.6,0.5l15.2,0.9
					c3.5,0.1,1.2,0.1,2.1,0.1l0.4,0.1l0.8,0.1l1.6,0.2l3.2,0.4l6.4,0.8l3.2,0.4l1.6,0.2l2,0.3l8.1,1.2l8.1,1.2l4,0.6
					c1.3,0.2,2.5,0.5,3.7,0.8c4.9,1,9.8,2.1,14.7,3.1c2.4,0.5,4.9,1.2,7.3,1.8l7.3,1.9l7.2,1.9l7.1,2.2c4.7,1.5,9.4,3,14.1,4.6
					c4.6,1.7,9.2,3.5,13.8,5.2c36.4,14.5,69.6,33.8,98.2,56.2c1.8,1.4,3.6,2.8,5.4,4.2c1.7,1.4,3.5,2.9,5.2,4.4
					c3.4,2.9,6.9,5.7,10.1,8.7c6.5,6.1,13,11.9,18.9,18.3c1.5,1.5,3,3.1,4.5,4.6l2.2,2.3l2.1,2.4c2.8,3.2,5.6,6.4,8.4,9.5l2.1,2.4
					l2,2.4c1.3,1.6,2.6,3.3,3.9,4.9c2.6,3.3,5.2,6.4,7.5,9.7c13,17.6,24.1,35.5,33.2,53.1c4.5,8.5,8.4,17.1,11.9,25.5
					c10.8,25.7,17.8,50.1,22.2,71.8c0.5,2.7,1,5.4,1.5,8.1c0.5,2.6,1,5.2,1.3,7.8c0.7,5.1,1.4,10,2,14.8c0.5,4.7,0.8,9.3,1.2,13.7
					c0.2,2.2,0.4,4.3,0.5,6.4c0.1,2.1,0.5,4.1,0.6,6C2387.9,624.2,2388.5,628,2388.5,631.4z"/>
				
					<linearGradient id="SVGID_00000173883191839576417260000006865941627256004761_" gradientUnits="userSpaceOnUse" x1="2079.7756" y1="614.7939" x2="2249.5894" y2="382.0635">
					<stop  offset="0" style="stop-color:#311944"/>
					<stop  offset="1" style="stop-color:#893976"/>
				</linearGradient>
				<path style="opacity:0.4;fill:url(#SVGID_00000173883191839576417260000006865941627256004761_);" d="M2388.5,631.4v1.4
					c-12.6-17.2-35.2-41.1-48.7-54.9c-0.3-0.6-0.7-1.2-0.9-1.8c-7.5-18.1-17.7-37.7-31-57.2c-13.2-19.6-29.9-38.9-49.5-56.6
					c-2.3-2.3-5-4.3-7.5-6.5c-1.3-1.1-2.6-2.2-3.9-3.2l-1.9-1.6c-0.7-0.5-1.4-1-2-1.5c-2.7-2-5.4-4.1-8.1-6.2l-2-1.5l-2.1-1.4
					c-1.4-1-2.8-1.9-4.2-2.9c-5.5-4-11.5-7.5-17.3-11.2c-3-1.8-6.1-3.4-9.1-5.1c-1.5-0.8-3-1.7-4.6-2.5c-1.6-0.8-3.1-1.6-4.7-2.3
					c-25-12.6-52.2-21.7-80.1-26.8c-3.5-0.6-7-1.2-10.5-1.7c-3.5-0.5-7.1-0.8-10.6-1.2l-5.3-0.6l-5.3-0.3l-5.3-0.3
					c-1.8-0.1-3.5-0.3-5.3-0.2c-3.5,0-7.1-0.1-10.6-0.1c-0.9,0-1.8-0.1-2.6,0l-2.4,0.1l-4.7,0.3l-4.7,0.2c-0.4,0-0.7,0-1.2,0.1
					l-4.8,0.4l-6.4,0.4l-4.8,0.4l-0.8,0.1l-0.3,0c0,0-1.7,0,1.1,0.1l-10.4,1.5c-1.7,0.3-3.4,0.4-5.1,0.8l-5.1,1l-5.1,1l-2.5,0.5
					c-0.8,0.2-1.7,0.4-2.5,0.6c-3.3,0.8-6.7,1.7-10,2.5c-1.7,0.4-3.3,0.9-4.9,1.4l-4.9,1.5l-4.9,1.5l-4.7,1.7
					c-3.2,1.2-6.3,2.2-9.4,3.5c-3.1,1.3-6.1,2.6-9.2,3.9c-24.2,10.8-45.9,24.7-64.5,40.5l-3.5,2.9l-3.3,3.1c-2.2,2.1-4.5,4-6.5,6.1
					c-0.1,0.1-0.2,0.2-0.3,0.3c53.2-65.8,139.3-108.6,236.5-108.6c99.6,0,187.5,44.9,240.3,113.4c4.5,8.5,8.4,17.1,11.9,25.5
					c10.8,25.7,17.8,50.1,22.2,71.8c0.5,2.7,1,5.4,1.5,8.1c0.5,2.6,1,5.2,1.3,7.8c0.7,5.1,1.4,10,2,14.8c0.5,4.7,0.8,9.3,1.2,13.7
					c0.2,2.2,0.4,4.3,0.5,6.4c0.1,2.1,0.5,4.1,0.6,6C2387.9,624.2,2388.5,628,2388.5,631.4z"/>
			</g>
		</g>
		<g>
			
				<linearGradient id="SVGID_00000145753717551544243500000008946690326504150671_" gradientUnits="userSpaceOnUse" x1="1940.4773" y1="1289.9469" x2="2076.7896" y2="1428.6932">
				<stop  offset="0" style="stop-color:#FFC444"/>
				<stop  offset="0.9964" style="stop-color:#F36F56"/>
			</linearGradient>
			<path style="fill:url(#SVGID_00000145753717551544243500000008946690326504150671_);" d="M1995.8,1355.2c0,0,7.9-29.8,2.3-37.4
				c-5.6-7.6-40.1-38.1-36.8-28.1c3.3,9.9,8.3,16.6,8.3,16.6s-18.5,8.6-6.6,21.5c11.9,12.9,15.9,15.9,16.6,27.5
				C1980.2,1366.8,1987.9,1370.8,1995.8,1355.2z"/>
			
				<linearGradient id="SVGID_00000180335645027414027360000007921579695020398766_" gradientUnits="userSpaceOnUse" x1="2278.3577" y1="2607.8809" x2="2277.209" y2="2300.0745">
				<stop  offset="0" style="stop-color:#AA80F9"/>
				<stop  offset="0.9964" style="stop-color:#6165D7"/>
			</linearGradient>
			<path style="fill:url(#SVGID_00000180335645027414027360000007921579695020398766_);" d="M2326.6,2641.7c0,0,4.2,25.8,3.7,34.9
				c-0.5,9.2-102.3,13.9-103.4,7c-1-6.9,16.8-17.8,29.4-21.7c12.6-3.9,49.3-14.2,49.3-14.2L2326.6,2641.7z"/>
			
				<linearGradient id="SVGID_00000142888283842842497470000007260014529963936666_" gradientUnits="userSpaceOnUse" x1="-813.2197" y1="2691.0579" x2="-811.3182" y2="2531.3423" gradientTransform="matrix(0.9968 7.990000e-02 -7.990000e-02 0.9968 3334.4841 89.3225)">
				<stop  offset="0" style="stop-color:#FFC444"/>
				<stop  offset="0.9964" style="stop-color:#F36F56"/>
			</linearGradient>
			<path style="fill:url(#SVGID_00000142888283842842497470000007260014529963936666_);" d="M2301.9,2616l3.2,32.1
				c0,0,11.8,7.8,22.2,1.8l5.2-34.9L2301.9,2616z"/>
			
				<linearGradient id="SVGID_00000130648439005223207690000008950366464632525756_" gradientUnits="userSpaceOnUse" x1="2459.8291" y1="2607.2034" x2="2458.6804" y2="2299.3965">
				<stop  offset="0" style="stop-color:#AA80F9"/>
				<stop  offset="0.9964" style="stop-color:#6165D7"/>
			</linearGradient>
			<path style="fill:url(#SVGID_00000130648439005223207690000008950366464632525756_);" d="M2508.3,2683.4c0,0,4.2,25.8,3.7,34.9
				c-0.5,9.2-102.3,13.9-103.4,7c-1-6.9,16.8-17.8,29.4-21.7c12.6-3.9,49.3-14.2,49.3-14.2L2508.3,2683.4z"/>
			
				<linearGradient id="SVGID_00000104666026665569934270000009045475021826196891_" gradientUnits="userSpaceOnUse" x1="-628.5356" y1="2693.2529" x2="-626.6341" y2="2533.5352" gradientTransform="matrix(0.9968 7.990000e-02 -7.990000e-02 0.9968 3334.4841 89.3225)">
				<stop  offset="0" style="stop-color:#FFC444"/>
				<stop  offset="0.9964" style="stop-color:#F36F56"/>
			</linearGradient>
			<path style="fill:url(#SVGID_00000104666026665569934270000009045475021826196891_);" d="M2483.5,2657.8l3.2,32.1
				c0,0,11.8,7.8,22.2,1.8l5.2-34.9L2483.5,2657.8z"/>
			
				<linearGradient id="SVGID_00000002350121307283734060000003986110194313120694_" gradientUnits="userSpaceOnUse" x1="2314.4143" y1="1905.3649" x2="2427.2378" y2="2482.1731">
				<stop  offset="0" style="stop-color:#311944"/>
				<stop  offset="1" style="stop-color:#893976"/>
			</linearGradient>
			<path style="fill:url(#SVGID_00000002350121307283734060000003986110194313120694_);" d="M2320.4,1779.2
				c-11.8,23.9-23.5,47.7-35.3,71.6c-9.5,136.1-14.2,284.2-11.1,442.5c2.2,117.8,8.5,229.4,17.6,334.1c16-0.7,31.9-1.5,47.9-2.2
				c23.1-45.8,50.3-115.2,52.8-200.8c2.6-89.3-24.5-101.2-22.7-186.7c2.2-110.8,48.7-140.4,73.5-273.7c9.5-51,15.8-117.6,8.3-198.4
				C2407.6,1770.1,2364,1774.7,2320.4,1779.2z"/>
			
				<linearGradient id="SVGID_00000059989676781775253180000008325705792454300829_" gradientUnits="userSpaceOnUse" x1="-905.2976" y1="2177.3962" x2="-735.2492" y2="2177.3962" gradientTransform="matrix(0.9968 7.990000e-02 -7.990000e-02 0.9968 3334.4841 89.3225)">
				<stop  offset="0" style="stop-color:#311944"/>
				<stop  offset="1" style="stop-color:#893976"/>
			</linearGradient>
			<path style="opacity:0.3;fill:url(#SVGID_00000059989676781775253180000008325705792454300829_);" d="M2451.2,1765.6
				c-23.5,2.5-47.1,4.9-70.6,7.4c-42.4,73.8-54.2,150.5-46.8,184.5c10.5,48,38.4,63.4,36.8,111.7c-1.5,47.7-29.6,60.1-47.5,116.4
				c-12.3,39-9.1,74.8-2.1,144.8c14.1,141.1,48.2,184.2,19.7,230.5c-8.1,13.1-22.7,28.8-51.3,40.7c0.7,8.7,1.4,17.3,2.1,25.9
				c16-0.7,31.9-1.5,47.9-2.2c23.1-45.8,50.3-115.2,52.8-200.8c2.6-89.3-24.5-101.2-22.7-186.7c2.2-110.8,48.7-140.4,73.5-273.7
				C2452.4,1913,2458.8,1846.4,2451.2,1765.6z"/>
			
				<linearGradient id="SVGID_00000074427298376331879710000015485770411995307659_" gradientUnits="userSpaceOnUse" x1="-809.2955" y1="2201.687" x2="-551.1461" y2="2201.687" gradientTransform="matrix(0.9968 7.990000e-02 -7.990000e-02 0.9968 3334.4841 89.3225)">
				<stop  offset="0" style="stop-color:#311944"/>
				<stop  offset="1" style="stop-color:#893976"/>
			</linearGradient>
			<path style="fill:url(#SVGID_00000074427298376331879710000015485770411995307659_);" d="M2383.7,1822.2
				c22.1,120.4,41.6,249.4,56.8,386.1c18.4,165.1,28.2,320.7,32,465.2c17.5,0.5,35,1,52.5,1.5c69-136.5,73.2-229.1,63.3-289.3
				c-3.8-23.2-14.2-68.7-16.6-136.8c-1.7-47.4,1.4-83.5,5.1-126.9c8.3-95.1,18.3-115.9,19.8-188.7c1.4-68.3,1.6-102.9-17.9-123
				C2527.5,1757,2393.8,1817.5,2383.7,1822.2z"/>
			
				<linearGradient id="SVGID_00000129923345817324390110000014809711137911435153_" gradientUnits="userSpaceOnUse" x1="2148.6125" y1="1369.9829" x2="2338.9917" y2="2592.6423">
				<stop  offset="0" style="stop-color:#FFC444"/>
				<stop  offset="0.9964" style="stop-color:#F36F56"/>
			</linearGradient>
			<path style="fill:url(#SVGID_00000129923345817324390110000014809711137911435153_);" d="M2005,1350.6
				c-11.6-0.8-23.3-1.6-34.9-2.4c-27.5,111-7.8,218.7,54.2,258.3c96.9,61.9,276.9-54.7,315.9-181.6c17.1-55.7,13.2-136.1-21-151.8
				c-9.5-4.3-24.2-5-56.2,12.9c-95.4,53.6-97.9,154.8-146.4,163.3C2095.1,1453.2,2060.3,1439.4,2005,1350.6z"/>
			
				<linearGradient id="SVGID_00000119835015971564053120000010483220895392746140_" gradientUnits="userSpaceOnUse" x1="-568.9178" y1="2676.7314" x2="-378.5388" y2="3899.3901" gradientTransform="matrix(0.9968 7.990000e-02 -7.990000e-02 0.9968 3334.4841 89.3225)">
				<stop  offset="0" style="stop-color:#FFC444"/>
				<stop  offset="0.9964" style="stop-color:#F36F56"/>
			</linearGradient>
			<path style="fill:url(#SVGID_00000119835015971564053120000010483220895392746140_);" d="M2271.7,1875.2
				c-16.8-27.8,4.3-54.7,9.1-107.4c5.4-59.8-17.6-69.7-40.4-168.8c-15.1-65.9-29.7-129.1-12.3-203.2c8.3-35.5,22.4-95.7,72.2-124.7
				c25.7-15,60.8-13.5,129.9-9.9c85.5,4.5,128.3,6.7,160.1,23.5c4.7,2.5,101.7,55.2,108.3,141.2c6.8,87.5-88.5,99.3-101.2,216
				c-5.7,52.4,4.5,133,11.1,185.3c6.3,50.2,10.7,63,0.8,78.2c-23.9,36.6-97,26.2-243.1,5.3C2308.9,1902.5,2284.2,1896,2271.7,1875.2
				z"/>
			
				<linearGradient id="SVGID_00000177476077116161937760000000457397984951774887_" gradientUnits="userSpaceOnUse" x1="-290.4811" y1="2232.3259" x2="-866.6115" y2="1405.2079" gradientTransform="matrix(0.9968 7.990000e-02 -7.990000e-02 0.9968 3334.4841 89.3225)">
				<stop  offset="0" style="stop-color:#FFC444"/>
				<stop  offset="0.9964" style="stop-color:#F36F56"/>
			</linearGradient>
			<path style="opacity:0.3;fill:url(#SVGID_00000177476077116161937760000000457397984951774887_);" d="M2494.1,1623.1
				c6.2,22.7,28.4,39.7,43.9,95.1c3.3,11.9,27.1,97-3.7,118c-17.8,12.1-33.8-10.8-77.1-13.8c-75-5.2-110.7,57.8-159.7,40.6
				c-8.5-3-19.7-9.4-30.9-24c-2.2,13.2-1.8,24.6,5.1,36.2c12.5,20.8,37.2,27.3,94.5,35.5c146.2,20.9,219.2,31.3,243.1-5.3
				c9.9-15.2,5.5-28-0.8-78.2c-6.6-52.3-16.8-132.9-11.1-185.3c12.7-116.7,108-128.5,101.2-216c-1.8-23.4-10.4-44.2-21.9-62.4
				C2555.9,1412.5,2474.7,1551.6,2494.1,1623.1z"/>
			
				<linearGradient id="SVGID_00000163049648666252307220000003576269157539047347_" gradientUnits="userSpaceOnUse" x1="2686.4207" y1="1689.4099" x2="2579.2383" y2="1834.1997">
				<stop  offset="0" style="stop-color:#FFC444"/>
				<stop  offset="0.9964" style="stop-color:#F36F56"/>
			</linearGradient>
			<path style="fill:url(#SVGID_00000163049648666252307220000003576269157539047347_);" d="M2646.8,1795.3l-24.2,15.4
				c-4.3-5-14.4-15.1-30.1-18.6c-17.7-3.9-38,1.7-38.5,7.3c-0.4,4.5,12,9.1,13.9,9.8c15.4,5.7,26.9,1,33.1,7.2
				c2.2,2.2,5,6.3,11.3,10.1c1.7,1,3.4,1.9,4.3,2.2c10.3,4,28-13.9,29.5-15.5L2646.8,1795.3z"/>
			
				<linearGradient id="SVGID_00000034788439266591074350000007463156391117334928_" gradientUnits="userSpaceOnUse" x1="-346.0074" y1="2642.0237" x2="-155.6279" y2="3864.6851" gradientTransform="matrix(0.9968 7.990000e-02 -7.990000e-02 0.9968 3334.4841 89.3225)">
				<stop  offset="0" style="stop-color:#FFC444"/>
				<stop  offset="0.9964" style="stop-color:#F36F56"/>
			</linearGradient>
			<path style="fill:url(#SVGID_00000034788439266591074350000007463156391117334928_);" d="M2575.3,1478
				c-17.5-41.9-29.6-106.1-2-201.4c182.1,71.8,275,241.9,238.8,376.8c-29.9,111.2-138.7,165.3-162.9,176.7
				c-5.6-12.9-11.3-25.7-16.9-38.6c28.1-31.3,59.8-77.6,55.3-130.5C2681.3,1587.9,2610.8,1562.9,2575.3,1478z"/>
			
				<linearGradient id="SVGID_00000170259115887565153100000004004986972092722854_" gradientUnits="userSpaceOnUse" x1="-2780.7339" y1="2980.7307" x2="-2780.7339" y2="2816.0327" gradientTransform="matrix(0.7795 0.6265 -0.6265 0.7795 6417.0522 747.2622)">
				<stop  offset="0" style="stop-color:#FFC444"/>
				<stop  offset="0.9964" style="stop-color:#F36F56"/>
			</linearGradient>
			<path style="fill:url(#SVGID_00000170259115887565153100000004004986972092722854_);" d="M2434.7,1175c0,0,1.4,31.9,11.3,55.7
				c8.9,21.6,55.9,35.1,65.5,39.9c9.5,4.8-17.9,18.9-45.4,21.6c-27.5,2.8-106-3.5-120.2-13.9c-14.2-10.4,11.4-9.6,31-16.8
				c19.6-7.2,31-45.6,27.5-63C2401.1,1181.1,2434.7,1175,2434.7,1175z"/>
			
				<linearGradient id="SVGID_00000116920564668384656990000018253816868923045765_" gradientUnits="userSpaceOnUse" x1="-775.9396" y1="1258.1593" x2="-844.8288" y2="1083.1934" gradientTransform="matrix(0.9968 7.990000e-02 -7.990000e-02 0.9968 3334.4841 89.3225)">
				<stop  offset="0" style="stop-color:#444B8C"/>
				<stop  offset="0.9964" style="stop-color:#3E4177"/>
			</linearGradient>
			<path style="fill:url(#SVGID_00000116920564668384656990000018253816868923045765_);" d="M2391.2,1163.4
				c-14.3-14-16.3-15.7-17.8-20.5c-6.2-19.4,8.8-46.1,28.6-52.6c1-0.3,14.3-4.6,19.4,1.2c4.3,4.9-2,11.6,1,21.1
				c2.8,8.8,10.5,9.5,24.6,21c11.7,9.5,18.9,15.4,20.6,23.8c3.5,17.2-17.3,42.1-35.7,41.4
				C2425.3,1198.5,2423.5,1195.1,2391.2,1163.4z"/>
			<g>
				
					<linearGradient id="SVGID_00000168077485298160317590000014651796843071443102_" gradientUnits="userSpaceOnUse" x1="-2897.1523" y1="2933.2664" x2="-2820.1499" y2="2783.5393" gradientTransform="matrix(0.7795 0.6265 -0.6265 0.7795 6417.0522 747.2622)">
					<stop  offset="0" style="stop-color:#FFC444"/>
					<stop  offset="0.9964" style="stop-color:#F36F56"/>
				</linearGradient>
				<path style="fill:url(#SVGID_00000168077485298160317590000014651796843071443102_);" d="M2430.1,1201.4
					c0,0-15.2,17.2-38.3,11.5c-20.7-5.1-15.4-52.6-0.3-60.1c5-2.5,14.2-2.3,21.1,1c4.1,2,5.2,4,11.9,7.1c6.2,2.8,8.2,2.4,9.8,4.4
					c2.1,2.5,3,7.9-3.6,20.9c4.7-3.3,9.8-4,12.9-1.8c0.5,0.4,1.8,1.6,2.3,3.2C2448.1,1193.4,2442,1199.4,2430.1,1201.4z"/>
			</g>
		</g>
		<g>
			
				<linearGradient id="SVGID_00000178202289108741017780000015287360658425793935_" gradientUnits="userSpaceOnUse" x1="1540.5093" y1="1321.2848" x2="1258.7377" y2="1411.7137">
				<stop  offset="0" style="stop-color:#FCB148"/>
				<stop  offset="5.207239e-02" style="stop-color:#FDBA46"/>
				<stop  offset="0.1424" style="stop-color:#FFC244"/>
				<stop  offset="0.3183" style="stop-color:#FFC444"/>
				<stop  offset="0.4849" style="stop-color:#FDB946"/>
				<stop  offset="0.7754" style="stop-color:#F99C4D"/>
				<stop  offset="0.8658" style="stop-color:#F8924F"/>
				<stop  offset="1" style="stop-color:#F8924F"/>
			</linearGradient>
			<path style="fill:url(#SVGID_00000178202289108741017780000015287360658425793935_);" d="M1864.9,1311.1
				c0,130.7-102.2,233.5-232.9,229.5c-136-4.2-250.3-121.6-250.3-262.1c0-140.5,114.3-242.5,250.3-228.4
				C1762.7,1063.7,1864.9,1180.3,1864.9,1311.1z"/>
			
				<linearGradient id="SVGID_00000160908869519176049960000004164252478262944929_" gradientUnits="userSpaceOnUse" x1="1768.446" y1="1040.8097" x2="1516.8978" y2="1595.7719">
				<stop  offset="0" style="stop-color:#FFDB44"/>
				<stop  offset="1" style="stop-color:#FEEF06"/>
			</linearGradient>
			<path style="fill:url(#SVGID_00000160908869519176049960000004164252478262944929_);" d="M1900.2,1299.8
				c0,130.7-102.2,233.5-232.9,229.5c-136-4.2-250.3-121.6-250.3-262.1c0-140.5,114.3-242.5,250.3-228.4
				C1798,1052.5,1900.2,1169.1,1900.2,1299.8z"/>
			
				<linearGradient id="SVGID_00000034073058864651856610000012077956174898864275_" gradientUnits="userSpaceOnUse" x1="1722.1736" y1="1626.7887" x2="1673.6368" y2="1361.6343">
				<stop  offset="0" style="stop-color:#FCB148"/>
				<stop  offset="5.207239e-02" style="stop-color:#FDBA46"/>
				<stop  offset="0.1424" style="stop-color:#FFC244"/>
				<stop  offset="0.3183" style="stop-color:#FFC444"/>
				<stop  offset="0.4849" style="stop-color:#FDB946"/>
				<stop  offset="0.7754" style="stop-color:#F99C4D"/>
				<stop  offset="0.8658" style="stop-color:#F8924F"/>
				<stop  offset="1" style="stop-color:#F8924F"/>
			</linearGradient>
			<path style="fill:url(#SVGID_00000034073058864651856610000012077956174898864275_);" d="M1889.9,1299.1
				c0,125-97.8,223.1-222.6,219.1c-129.6-4.2-238.5-116.3-238.5-250.1c0-133.9,108.8-231.3,238.5-218
				C1792.1,1062.8,1889.9,1174.1,1889.9,1299.1z"/>
			
				<linearGradient id="SVGID_00000116210308393816595550000001356313398090078381_" gradientUnits="userSpaceOnUse" x1="1619.2664" y1="1197.6071" x2="1819.2926" y2="1622.2247">
				<stop  offset="0" style="stop-color:#FCB148"/>
				<stop  offset="5.207239e-02" style="stop-color:#FDBA46"/>
				<stop  offset="0.1424" style="stop-color:#FFC244"/>
				<stop  offset="0.3183" style="stop-color:#FFC444"/>
				<stop  offset="0.4849" style="stop-color:#FDB946"/>
				<stop  offset="0.7754" style="stop-color:#F99C4D"/>
				<stop  offset="0.8658" style="stop-color:#F8924F"/>
				<stop  offset="1" style="stop-color:#F8924F"/>
			</linearGradient>
			<path style="fill:url(#SVGID_00000116210308393816595550000001356313398090078381_);" d="M1882.6,1298.6
				c0,120.8-94.6,215.6-215.3,211.6c-125.1-4.2-230.1-112.4-230.1-241.6s104.9-223.2,230.1-210.6
				C1788,1070.2,1882.6,1177.8,1882.6,1298.6z"/>
			<g>
				
					<linearGradient id="SVGID_00000114038329268956404610000008365119230696903327_" gradientUnits="userSpaceOnUse" x1="1611.2972" y1="1106.2347" x2="1711.8773" y2="1483.1915">
					<stop  offset="0" style="stop-color:#FFDB44"/>
					<stop  offset="1" style="stop-color:#FEEF06"/>
				</linearGradient>
				<path style="fill:url(#SVGID_00000114038329268956404610000008365119230696903327_);" d="M1666.1,1099.1L1666.1,1099.1
					c6.4,0.6,11.6,6.4,11.6,12.9v22.2c12.8,1.4,25.7,3.7,38.6,6.7c9.5,2.2,18.9,4.9,28.3,8c5.6,1.8,9.4,7.5,8.9,13.4l-2.7,27.9
					c-0.7,7.4-8,11.7-14.9,8.7c-6.2-2.7-12.5-5.1-19-7.1c-11.3-3.4-23.2-5.7-35.8-6.7l-3.3-0.3v63.7c33.5,9.4,58.1,22,74,37.8
					c15.8,15.8,23.7,35.4,23.7,59c0,25.5-8.7,46-26.2,61.4c-17.6,15.5-42.2,24.2-74.1,26.1v24.6c0,6.5-5.2,11.6-11.6,11.3l-0.2,0
					c-6.4-0.3-11.7-5.8-11.7-12.3v-24.2l-5.2-0.2c-14.9-0.7-29.3-2.2-42.9-4.6c-10.1-1.8-20-4-29.7-6.8c-5.8-1.7-9.8-7.2-9.3-13.2
					l3.2-35.9c0.7-7.8,8.5-12.3,15.9-9.4c8.6,3.4,17.3,6.2,26.1,8.6c13.7,3.6,27.6,5.9,41.7,7l0.2-70.9c-32.1-8-56.2-19.7-72-35.3
					c-15.9-15.7-23.9-35.7-23.9-60.1c0-25.2,8.6-44.7,25.9-58.4c17.1-13.6,41.5-20.4,72.9-20.4v-22.7
					C1654.4,1103.3,1659.7,1098.5,1666.1,1099.1z M1654.4,1184.2c-9.9,0.7-17.7,3.5-23.2,8.2c-5.6,4.7-8.3,11.1-8.3,19.1
					c0,7.6,2.6,13.9,7.7,19c5.1,5.1,13.1,9.1,23.8,12.2V1184.2z M1675,1312.5v65c10.8,0,19.1-2.6,24.9-7.7
					c5.8-5.2,8.7-12.5,8.7-21.9c0-8.6-2.7-15.7-8-21.4C1695.1,1320.8,1686.7,1316.2,1675,1312.5z"/>
			</g>
			
				<linearGradient id="SVGID_00000171687296518770383830000005431930253700311199_" gradientUnits="userSpaceOnUse" x1="1560.4192" y1="1225.0862" x2="1760.0421" y2="1648.8475">
				<stop  offset="0" style="stop-color:#FCB148"/>
				<stop  offset="5.207239e-02" style="stop-color:#FDBA46"/>
				<stop  offset="0.1424" style="stop-color:#FFC244"/>
				<stop  offset="0.3183" style="stop-color:#FFC444"/>
				<stop  offset="0.4849" style="stop-color:#FDB946"/>
				<stop  offset="0.7754" style="stop-color:#F99C4D"/>
				<stop  offset="0.8658" style="stop-color:#F8924F"/>
				<stop  offset="1" style="stop-color:#F8924F"/>
			</linearGradient>
			<path style="opacity:0.3;fill:url(#SVGID_00000171687296518770383830000005431930253700311199_);" d="M1628.4,1328.2
				c7.3-71.8,73.3-102.2,64.7-168.3c-5.3-40.7-36.2-75-70.6-101.8c-104.4,11-185.2,97.4-185.2,210.5
				c0,129.2,104.9,237.4,230.1,241.6c12.2,0.4,24-0.2,35.6-1.7C1653.2,1459,1622.1,1389.9,1628.4,1328.2z"/>
		</g>
	</g>
</g>
</svg>
